<svg width="93" height="58" viewBox="0 0 93 58" fill="none" xmlns="http://www.w3.org/2000/svg">
<path d="M55.1162 0.726562C59.5584 -0.233317 63.3117 0.900572 66.1738 3.29102C69.0396 5.68462 71.0295 9.35595 71.8906 13.4932L71.9141 13.9443L71.916 13.9844L71.9268 14.0234C72.1083 14.7075 72.1647 15.461 72.1797 16.2461C72.1872 16.6379 72.1843 17.0316 72.1826 17.4268C72.1809 17.8198 72.1805 18.2144 72.1934 18.5977L72.2051 18.9658L72.5732 18.9707C73.4375 18.9818 74.5652 18.972 75.3633 19.0654C79.7568 19.5805 83.8417 21.5826 86.9414 24.7383C89.372 27.2117 91.0595 30.3172 91.8125 33.7021V33.7031C91.9847 34.4667 92.1542 35.191 92.1357 35.9062L92.1348 35.9453L92.1416 35.9834C92.435 37.6392 92.2045 39.8582 91.6328 42.0312C91.0974 44.0662 90.2762 46.0136 89.3574 47.3691L89.1719 47.6318C89.1021 47.7274 89.071 47.7686 89.04 47.8037C89.0093 47.8386 88.9734 47.8737 88.8896 47.9521L88.8193 48.0176L88.7891 48.1084C88.7764 48.1456 88.7303 48.2337 88.6377 48.3721C88.5511 48.5014 88.441 48.6503 88.3223 48.8027C88.0849 49.1075 87.8267 49.4107 87.6865 49.5742H87.6855C85.6562 51.9533 83.079 53.7992 80.1787 54.9531L79.5947 55.1748C77.2417 56.0211 74.7276 56.2934 72.1562 56.3496C69.5597 56.4063 66.9994 56.2446 64.4297 56.2393H64.4277C56.4014 56.2523 48.3738 56.196 40.3486 56.0693H40.3447L21.916 55.9824H21.917C19.5311 55.9507 16.8625 56.0862 14.5557 55.8457C10.1706 55.3892 5.80148 52.7512 3.2373 49.1826H3.23633C2.83989 48.631 2.37058 47.9388 2.17383 47.3877L2.15527 47.335L2.12207 47.29C1.80803 46.8594 1.48516 46.11 1.21191 45.2949C0.941921 44.4895 0.734376 43.6633 0.636719 43.1094C-0.157004 38.6053 0.964484 34.3694 3.5459 30.6318C5.19913 28.5076 6.74845 27.0432 8.49609 25.9316C10.0289 24.9567 11.7291 24.2444 13.8135 23.6016L14.7305 23.3301C14.8495 23.2961 14.9183 23.2151 14.9297 23.2021C14.9547 23.1738 14.9739 23.1456 14.9863 23.126C15.0122 23.0852 15.0365 23.0383 15.0576 22.9951C15.1012 22.906 15.1499 22.7931 15.1943 22.6826C15.279 22.4724 15.3719 22.2137 15.3975 22.1006C15.9023 19.8694 16.3428 17.6999 17.3018 15.6797L17.3037 15.6748C19.7482 10.3549 24.9205 5.94235 30.9473 6.27832C35.4566 6.5297 38.9479 9.24913 41.8838 12.6367L42.2822 13.0967L42.5283 12.541C45.0368 6.8752 48.8392 2.08324 55.1162 0.726562Z" stroke="#FFFFFD" stroke-width="0.771821"/>
<path d="M14.5523 49.5553C13.2675 49.5553 12.1409 49.328 11.1724 48.8734C10.2039 48.399 9.39347 47.7764 8.7412 47.0055C8.1087 46.2149 7.62445 45.3353 7.28843 44.3668C6.97218 43.3983 6.81406 42.41 6.81406 41.402C6.81406 40.3939 6.97218 39.4155 7.28843 38.4668C7.60468 37.4983 8.07906 36.6187 8.71155 35.8281C9.36382 35.0375 10.1742 34.4148 11.1427 33.9602C12.1112 33.4859 13.2478 33.2487 14.5523 33.2487C15.8173 33.2487 16.8649 33.4364 17.695 33.812C18.5252 34.1875 19.1873 34.6619 19.6815 35.2351C20.1954 35.7885 20.5709 36.3519 20.8081 36.9251C21.065 37.4785 21.2331 37.943 21.3121 38.3185C21.3912 38.6941 21.4307 38.8819 21.4307 38.8819H18.7031C18.7031 38.8819 18.6536 38.7237 18.5548 38.4075C18.456 38.0715 18.2682 37.6959 17.9915 37.2808C17.7148 36.8658 17.2997 36.5001 16.7463 36.1839C16.1928 35.8478 15.4615 35.6798 14.5523 35.6798C13.4652 35.6798 12.5461 35.9566 11.795 36.51C11.0637 37.0437 10.5102 37.7453 10.1347 38.615C9.7789 39.4847 9.60101 40.4137 9.60101 41.402C9.60101 42.3902 9.7789 43.3192 10.1347 44.1889C10.5102 45.0586 11.0637 45.7702 11.795 46.3236C12.5461 46.8573 13.4652 47.1241 14.5523 47.1241C15.4615 47.1241 16.1928 46.966 16.7463 46.6497C17.2997 46.3137 17.7148 45.9382 17.9915 45.5231C18.2682 45.108 18.456 44.7424 18.5548 44.4261C18.6536 44.0901 18.7031 43.9221 18.7031 43.9221H21.4307C21.4307 43.9221 21.3912 44.1099 21.3121 44.4854C21.2331 44.8609 21.065 45.3353 20.8081 45.9085C20.5709 46.462 20.1954 47.0253 19.6815 47.5985C19.1873 48.1519 18.5252 48.6164 17.695 48.992C16.8649 49.3675 15.8173 49.5553 14.5523 49.5553ZM22.9215 49.2588L22.9511 26.726H25.7381V49.2588H22.9215ZM34.9552 49.5553C33.2752 49.5553 31.8619 49.1698 30.7155 48.399C29.5691 47.6084 28.6994 46.5904 28.1065 45.3452C27.5135 44.1 27.217 42.7856 27.217 41.402C27.217 39.9986 27.5135 38.6842 28.1065 37.4587C28.6994 36.2135 29.5691 35.2055 30.7155 34.4346C31.8619 33.644 33.2752 33.2487 34.9552 33.2487C36.6353 33.2487 38.0485 33.644 39.1949 34.4346C40.3413 35.2055 41.211 36.2135 41.804 37.4587C42.397 38.6842 42.6935 39.9986 42.6935 41.402C42.6935 42.7856 42.397 44.1 41.804 45.3452C41.211 46.5904 40.3413 47.6084 39.1949 48.399C38.0485 49.1698 36.6353 49.5553 34.9552 49.5553ZM34.9552 47.0945C36.0226 47.0945 36.912 46.8276 37.6236 46.294C38.3549 45.7405 38.8985 45.029 39.2542 44.1593C39.6298 43.2896 39.8176 42.3705 39.8176 41.402C39.8176 40.4137 39.6298 39.4946 39.2542 38.6447C38.8985 37.775 38.3549 37.0733 37.6236 36.5396C36.912 35.9862 36.0226 35.7095 34.9552 35.7095C33.9077 35.7095 33.0182 35.9862 32.2869 36.5396C31.5555 37.0733 31.0021 37.775 30.6266 38.6447C30.2708 39.4946 30.0929 40.4137 30.0929 41.402C30.0929 42.3705 30.2708 43.2896 30.6266 44.1593C31.0021 45.029 31.5555 45.7405 32.2869 46.294C33.0182 46.8276 33.9077 47.0945 34.9552 47.0945ZM48.9967 49.5553C47.4353 49.5553 46.19 49.071 45.2611 48.1025C44.3321 47.134 43.8676 45.7899 43.8676 44.0703V33.5452H46.6842V43.9221C46.6842 44.9499 46.9609 45.7405 47.5143 46.294C48.0875 46.8474 48.8386 47.1241 49.7676 47.1241C50.7164 47.1241 51.4773 46.877 52.0505 46.3829C52.6237 45.8888 53.0388 45.2563 53.2958 44.4854C53.5527 43.7145 53.6812 42.9239 53.6812 42.1135V33.5452H56.4978V49.2588H53.6812V47.0055H53.5033C53.3847 47.2427 53.1574 47.5688 52.8214 47.9839C52.4854 48.3792 52.011 48.7449 51.3983 49.0809C50.7855 49.3971 49.985 49.5553 48.9967 49.5553ZM64.8114 49.5553C63.6254 49.5553 62.5877 49.328 61.6983 48.8734C60.8088 48.399 60.0676 47.7764 59.4747 47.0055C58.8817 46.2149 58.437 45.3353 58.1405 44.3668C57.844 43.3983 57.6958 42.41 57.6958 41.402C57.6958 40.3939 57.844 39.4056 58.1405 38.4371C58.437 37.4686 58.8817 36.5989 59.4747 35.8281C60.0676 35.0375 60.8088 34.4148 61.6983 33.9602C62.5877 33.4859 63.6254 33.2487 64.8114 33.2487C65.7997 33.2487 66.6298 33.4068 67.3018 33.723C67.9739 34.0393 68.5174 34.4148 68.9325 34.8497C69.3476 35.2648 69.6638 35.6601 69.8812 36.0356H70.0591V26.726H72.8757V49.2588H70.0591V46.7683H69.8812C69.6638 47.1439 69.3476 47.5491 68.9325 47.9839C68.5174 48.4188 67.9739 48.7943 67.3018 49.1105C66.6298 49.407 65.7997 49.5553 64.8114 49.5553ZM65.2857 47.1538C66.3333 47.1538 67.203 46.877 67.8948 46.3236C68.6064 45.7504 69.1302 45.029 69.4662 44.1593C69.8219 43.2698 69.9998 42.3507 69.9998 41.402C69.9998 40.4335 69.8219 39.5144 69.4662 38.6447C69.1302 37.775 68.6064 37.0634 67.8948 36.51C67.203 35.9368 66.3333 35.6502 65.2857 35.6502C64.2382 35.6502 63.3586 35.9368 62.647 36.51C61.9355 37.0634 61.4018 37.775 61.046 38.6447C60.71 39.5144 60.542 40.4335 60.542 41.402C60.542 42.3507 60.71 43.2698 61.046 44.1593C61.4018 45.029 61.9355 45.7504 62.647 46.3236C63.3586 46.877 64.2382 47.1538 65.2857 47.1538ZM80.4166 49.5553C79.2109 49.5553 78.2127 49.3873 77.4221 49.0513C76.6513 48.7152 76.0385 48.3002 75.5839 47.806C75.1293 47.2921 74.7933 46.7881 74.5759 46.294C74.3585 45.78 74.2201 45.3551 74.1608 45.0191C74.1015 44.6831 74.0719 44.515 74.0719 44.515H76.9181C76.9181 44.515 76.9478 44.6534 77.007 44.9301C77.0861 45.1871 77.2344 45.4934 77.4518 45.8492C77.689 46.1852 78.0447 46.4916 78.5191 46.7683C79.0133 47.0253 79.6655 47.1538 80.4759 47.1538C81.4049 47.1538 82.1263 46.9363 82.6402 46.5015C83.1541 46.0469 83.4111 45.4934 83.4111 44.8412C83.4111 44.268 83.2036 43.8134 82.7885 43.4774C82.3932 43.1413 81.82 42.8844 81.0689 42.7065L78.9342 42.2025C78.1436 42.0048 77.4024 41.738 76.7106 41.402C76.0188 41.066 75.4554 40.6113 75.0206 40.0381C74.6055 39.4452 74.398 38.7139 74.398 37.8442C74.398 36.5001 74.902 35.4031 75.9101 34.5532C76.9181 33.6835 78.2325 33.2487 79.8533 33.2487C80.9404 33.2487 81.8397 33.4068 82.5513 33.723C83.2629 34.0195 83.8262 34.3951 84.2413 34.8497C84.6761 35.3043 84.9923 35.7589 85.19 36.2135C85.4074 36.6681 85.5458 37.0535 85.6051 37.3698C85.6644 37.6663 85.694 37.8145 85.694 37.8145H82.9664C82.9664 37.8145 82.9367 37.7058 82.8774 37.4884C82.8181 37.2512 82.6798 36.9942 82.4623 36.7175C82.2647 36.421 81.9583 36.1641 81.5432 35.9467C81.1282 35.7095 80.5747 35.5909 79.8829 35.5909C78.9342 35.5909 78.2424 35.8083 77.8076 36.2432C77.3727 36.678 77.1553 37.1524 77.1553 37.6663C77.1553 38.1604 77.3529 38.5656 77.7483 38.8819C78.1633 39.1783 78.697 39.4056 79.3493 39.5638L81.5136 40.0678C82.8577 40.384 83.9645 40.9078 84.8342 41.6392C85.7237 42.3507 86.1684 43.3785 86.1684 44.7226C86.1684 45.5923 85.9411 46.4027 85.4865 47.1538C85.0319 47.8851 84.3796 48.4682 83.5297 48.903C82.6798 49.3379 81.6421 49.5553 80.4166 49.5553Z" fill="#FFFFFD"/>
</svg>
